<?xml version="1.0" standalone="no"?>
<!DOCTYPE svg PUBLIC "-//W3C//DTD SVG 20010904//EN"
 "http://www.w3.org/TR/2001/REC-SVG-20010904/DTD/svg10.dtd">
<svg version="1.0" xmlns="http://www.w3.org/2000/svg"
 width="500.000000pt" height="500.000000pt" viewBox="0 0 500.000000 500.000000"
 preserveAspectRatio="xMidYMid meet">

<g transform="translate(0.000000,500.000000) scale(0.100000,-0.100000)"
fill="#000000" stroke="none">
<path d="M2060 3984 c-222 -30 -233 -33 -293 -72 -33 -22 -45 -24 -106 -20
-64 5 -71 3 -90 -18 -12 -13 -27 -24 -33 -24 -7 0 -26 -12 -42 -26 -25 -22
-28 -29 -22 -66 7 -40 6 -42 -56 -99 -35 -33 -72 -62 -83 -65 -24 -7 -64 -53
-65 -73 0 -7 -17 -41 -37 -75 -21 -33 -46 -80 -55 -104 -15 -39 -15 -48 -2
-84 18 -53 18 -67 -6 -137 l-20 -59 25 -54 c13 -29 45 -73 70 -98 26 -25 53
-61 61 -79 20 -47 90 -119 139 -142 44 -20 137 -25 179 -9 17 6 35 6 51 0 18
-7 36 -5 68 9 54 23 148 43 198 43 42 -1 105 -29 133 -61 14 -16 31 -21 66
-21 63 0 85 -25 94 -106 5 -47 3 -70 -9 -95 -15 -31 -15 -37 -1 -71 9 -20 35
-52 57 -70 65 -52 107 -154 115 -283 8 -112 7 -122 -16 -153 -28 -38 -38 -152
-18 -195 38 -78 51 -116 69 -201 10 -50 19 -101 19 -114 0 -31 23 -74 60 -110
19 -20 30 -41 30 -59 0 -15 9 -46 19 -68 11 -22 27 -59 37 -82 20 -51 39 -54
125 -24 31 10 74 22 97 26 23 4 44 11 48 16 3 5 14 9 24 9 10 0 25 9 33 20 7
11 34 34 58 52 77 55 123 126 134 205 7 55 24 76 66 87 37 8 41 26 18 85 -10
28 -19 64 -19 79 0 37 34 90 62 97 13 4 34 21 48 39 13 18 45 44 69 57 72 38
72 55 5 312 l-28 108 20 37 c64 123 188 267 259 302 52 26 102 86 145 174 23
47 51 98 62 112 15 18 18 28 10 36 -8 8 -15 8 -25 0 -7 -6 -56 -19 -109 -28
-91 -16 -98 -16 -123 0 -14 9 -30 29 -35 44 -17 46 -24 54 -76 81 -31 17 -56
40 -69 62 -11 20 -39 60 -62 88 -24 29 -43 63 -43 74 0 12 -8 36 -19 52 -10
17 -24 48 -31 70 -7 22 -35 85 -62 139 -50 103 -61 162 -35 188 21 21 38 56
29 62 -12 7 -134 8 -170 1 -19 -4 -38 -3 -45 4 -7 5 -42 12 -78 15 -73 5 -95
12 -103 31 -13 35 -126 37 -126 2 0 -27 -48 -60 -86 -59 -50 2 -71 10 -117 43
-22 16 -52 29 -67 29 -14 0 -47 14 -73 30 -26 17 -52 30 -57 30 -23 0 -59 24
-64 43 -3 12 2 32 10 45 10 15 13 34 9 53 -8 33 -4 33 -145 13z m549 -702 c12
-22 -3 -42 -31 -42 -24 0 -34 26 -18 45 17 20 37 19 49 -3z m111 -74 l0 -72
38 37 c29 28 46 37 72 37 l34 0 -38 -39 c-42 -43 -42 -42 12 -108 l34 -43 -32
0 c-25 0 -40 8 -65 37 -35 41 -55 38 -55 -8 0 -26 -3 -29 -30 -29 l-30 0 0
130 0 130 30 0 30 0 0 -72z m-355 37 c0 -18 -8 -20 -62 -23 l-63 -3 0 -34 0
-35 55 0 c48 0 55 -2 55 -20 0 -18 -7 -20 -55 -20 l-55 0 0 -45 c0 -43 -1 -45
-30 -45 l-30 0 0 125 0 126 93 -3 c84 -3 92 -5 92 -23z m-728 -59 c23 -20 28
-32 28 -71 0 -39 -5 -51 -28 -71 -79 -68 -205 14 -167 107 25 60 116 79 167
35z m123 14 c0 -7 6 -7 19 0 36 19 78 12 100 -16 17 -21 21 -41 21 -95 0 -67
-1 -69 -25 -69 -24 0 -25 3 -25 59 0 60 -15 91 -45 91 -30 0 -45 -31 -45 -91
0 -56 -1 -59 -25 -59 -25 0 -25 0 -25 95 0 95 0 95 25 95 14 0 25 -5 25 -10z
m344 -12 c15 -13 29 -38 32 -55 l7 -33 -78 0 c-77 0 -78 0 -60 -20 19 -21 64
-27 81 -10 8 8 15 6 25 -6 36 -44 -99 -60 -143 -17 -11 11 -22 39 -25 61 -5
36 -2 45 25 72 39 38 97 42 136 8z m349 10 c4 -10 7 -10 18 0 23 21 49 15 49
-13 0 -17 -5 -25 -18 -25 -31 0 -42 -22 -42 -82 0 -58 0 -58 -30 -58 l-30 0 0
95 c0 94 0 95 24 95 13 0 26 -6 29 -12z m157 -83 c0 -95 0 -95 -25 -95 -25 0
-25 0 -25 95 0 95 0 95 25 95 25 0 25 0 25 -95z m428 75 c19 -18 22 -32 22
-95 0 -73 -1 -75 -25 -75 -14 0 -25 5 -25 12 0 9 -3 9 -12 0 -15 -15 -63 -16
-89 -2 -13 7 -19 21 -19 45 0 41 20 55 79 55 43 0 51 9 26 30 -10 8 -29 10
-54 6 -30 -4 -40 -2 -45 9 -14 36 106 48 142 15z"/>
<path d="M1532 3158 c-7 -7 -12 -27 -12 -45 0 -26 6 -36 24 -45 31 -14 53 -5
68 26 22 49 -43 101 -80 64z"/>
<path d="M2000 3150 c-10 -19 -8 -20 40 -20 51 0 60 6 38 28 -19 19 -66 15
-78 -8z"/>
<path d="M2943 3084 c-3 -8 -1 -20 5 -26 15 -15 62 6 62 27 0 21 -59 20 -67
-1z"/>
<path d="M3766 1831 c-17 -27 -43 -48 -81 -66 -60 -30 -60 -30 -44 -85 9 -31
8 -43 -10 -83 -24 -53 -25 -70 -9 -132 10 -36 16 -45 35 -45 25 0 43 26 43 65
0 14 7 39 15 55 8 16 21 53 29 82 8 29 23 86 34 126 11 40 25 79 32 87 12 14
6 35 -10 35 -6 0 -21 -18 -34 -39z"/>
</g>
</svg>
